<svg width="1272" height="297" viewBox="0 0 1272 297" fill="none" xmlns="http://www.w3.org/2000/svg">
<path d="M451.348 77H481.63L432.602 166.404V223.26H405.41V166.404L357 77H387.694C398.406 98.424 409.53 119.848 419.83 140.654C430.336 119.848 438.576 102.956 451.348 77Z" fill="white"/>
<path d="M520.229 223.466H494.273V117.582H520.229V223.466ZM521.465 101.72H494.479V77.206H521.465V101.72Z" fill="white"/>
<path d="M645.089 171.76V176.91H564.955C566.809 193.802 578.345 204.514 593.383 204.514C604.507 204.514 613.777 200.6 617.691 191.536H643.647C637.261 212.548 618.927 225.938 593.589 225.938C562.071 225.938 540.029 203.072 540.029 169.288C540.029 136.946 562.689 113.668 593.795 113.668C629.021 113.668 644.883 140.448 645.089 171.76ZM565.161 159.194H619.957C618.309 145.598 610.275 133.65 593.383 133.65C577.933 133.65 567.427 143.95 565.161 159.194Z" fill="white"/>
<path d="M691.024 223.466H665.068V77.206H691.024V223.466Z" fill="white"/>
<path d="M792.606 77H819.386V223.26H792.4V206.574H792.194C788.28 214.814 777.98 225.938 760.47 225.938C732.042 225.938 711.03 204.102 711.03 170.112C711.03 136.122 731.836 114.492 760.058 114.492C778.186 114.492 789.104 126.028 792.4 134.886H792.606V77ZM765.826 205.132C785.602 205.132 794.872 188.24 794.872 170.112C794.872 152.19 784.984 135.298 765.826 135.298C747.286 135.298 736.78 150.748 736.78 170.112C736.78 189.682 746.874 205.132 765.826 205.132Z" fill="white"/>
<path d="M940.112 77.206H967.098V223.26H913.538L871.72 79.06V223.26H844.94V77.206H898.5L940.112 222.024V77.206Z" fill="white"/>
<path d="M1092.9 171.76V176.91H1012.76C1014.62 193.802 1026.15 204.514 1041.19 204.514C1052.32 204.514 1061.59 200.6 1065.5 191.536H1091.46C1085.07 212.548 1066.74 225.938 1041.4 225.938C1009.88 225.938 987.838 203.072 987.838 169.288C987.838 136.946 1010.5 113.668 1041.6 113.668C1076.83 113.668 1092.69 140.448 1092.9 171.76ZM1012.97 159.194H1067.77C1066.12 145.598 1058.08 133.65 1041.19 133.65C1025.74 133.65 1015.24 143.95 1012.97 159.194Z" fill="white"/>
<path d="M1166.85 162.078C1184.77 166.816 1196.51 175.674 1196.51 192.154C1196.51 212.548 1177.35 225.732 1152.63 225.732C1129.97 225.732 1110.4 215.226 1107.73 189.682H1133.06C1134.92 200.6 1141.72 205.956 1153.05 205.956C1162.73 205.956 1170.97 201.836 1170.97 193.184C1170.97 184.944 1162.93 182.472 1155.11 180.412C1149.96 178.764 1145.01 177.528 1139.66 176.086C1122.56 171.554 1111.02 161.46 1111.02 145.186C1111.02 126.234 1128.94 113.462 1151.81 113.462C1175.71 113.462 1192.19 125.616 1194.86 148.276H1170.56C1168.91 137.564 1160.67 133.032 1151.6 133.032C1142.95 133.032 1135.54 137.77 1135.54 144.774C1135.54 151.778 1141.3 155.28 1152.63 158.37C1157.58 159.812 1161.9 160.842 1166.85 162.078Z" fill="white"/>
<path d="M1250.87 85.652V109.96L1225.53 118.2V92.656L1250.87 85.652ZM1271.88 137.976H1250.87V183.708C1250.87 195.862 1253.55 202.66 1264.67 202.66H1271.27V223.466H1258.7C1232.74 223.672 1225.53 208.428 1225.53 187.21V137.976H1208.85V118.2H1271.88V137.976Z" fill="white"/>
<path d="M64.2519 259.871L96.3734 278.44L95.6413 240.885L128.495 148.495L96.3734 129.935L81.0263 175.931L64.2519 111.376L32.1211 92.8066L64.2519 222.752V259.871Z" fill="#2CC3B9"/>
<path d="M160.626 18.5605L192.747 37.1294L224.869 204.184L192.747 185.625L160.626 18.5605Z" fill="#2CC3B9"/>
<path d="M0 74.2477L32.1211 92.8066L128.495 37.1285L128.495 148.495L160.626 167.064L160.626 18.5605L128.495 0L0 74.2477Z" fill="#2CC3B9"/>
<path d="M224.869 55.6875L257 74.2471V222.752L128.496 296.999L96.3734 278.44L224.869 204.183V55.6875Z" fill="#2CC3B9"/>
</svg>
