<svg id="Layer_1" data-name="Layer 1" xmlns="http://www.w3.org/2000/svg" viewBox="0 0 920.57 225.87"><defs><style>.cls-1{fill:#1db7ac;}.cls-2{fill:#42e8db;}.cls-3{fill:#cdfce7;}.cls-4{fill:#fff;}</style></defs><path class="cls-1" d="M194.06,54,102,.89a6.68,6.68,0,0,0-6.67,0L3.34,54A6.65,6.65,0,0,0,0,59.8V166.07a6.65,6.65,0,0,0,3.34,5.77l92,53.13a6.63,6.63,0,0,0,6.67,0l92-53.13a6.66,6.66,0,0,0,3.33-5.77V59.8A6.66,6.66,0,0,0,194.06,54Z"/><path class="cls-2" d="M194.06,54,102,.89a6.68,6.68,0,0,0-6.67,0L3.34,54A6.65,6.65,0,0,0,0,59.8v7.94A6.65,6.65,0,0,1,3.34,62l92-53.14a6.68,6.68,0,0,1,6.67,0l92,53.14a6.66,6.66,0,0,1,3.33,5.77V59.8A6.66,6.66,0,0,0,194.06,54Z"/><path class="cls-2" d="M3.34,171.84l92,53.13a6.63,6.63,0,0,0,6.67,0l92-53.13a6.66,6.66,0,0,0,3.33-5.77v-7.94a6.66,6.66,0,0,1-3.33,5.77L102,217a6.63,6.63,0,0,1-6.67,0l-92-53.13A6.65,6.65,0,0,1,0,158.13v7.94A6.65,6.65,0,0,0,3.34,171.84Z"/><path class="cls-3" d="M69.33,50.52V83.73a21.39,21.39,0,0,1-10.71,18.56l-29.35,17V106.94L48,96.14a21.49,21.49,0,0,0,10.7-18.55V56.7l.48-.31Z"/><path class="cls-3" d="M139.31,170.25l-3.47,2-2.5,1.45-4.65,2.63-19.3-11.14a21.53,21.53,0,0,0-21.46,0L68.58,176.39l-10.53-6.14L87.93,153a21.33,21.33,0,0,1,21.46,0l29.87,17.24Z"/><path class="cls-4" d="M167.87,146.78v6.88l-4.65,2.64-53.88-31a21.43,21.43,0,0,0-21.41,0L34.05,156.43l-4.78-2.77v-6.8l53.35-30.75A21.5,21.5,0,0,0,93.33,97.55V36.74l5.31-3.07L104,36.74V97.5a21.47,21.47,0,0,0,10.75,18.61Z"/><path class="cls-3" d="M167.87,106.81v12.32l-29.26-16.84a21.4,21.4,0,0,1-10.75-18.56V50.52l2.67,1.53,7.94,4.52v21A21.34,21.34,0,0,0,149.22,96.1Z"/><path class="cls-4" d="M242.84,51.66h21.82l17,45.33a55.37,55.37,0,0,1,2.68,8.89A82.1,82.1,0,0,1,289.51,97l31.22-45.33h23.68l-52.21,74.2-7.73,48.52H263.82l7.73-48.52Z"/><path class="cls-4" d="M350.28,91.45h19.65l-13.1,82.93H337.19Zm2.19-27a14.52,14.52,0,0,1,14.1-14.1,10,10,0,0,1,10.24,10.24c0,7.21-6.72,14.1-14.1,14.1A10,10,0,0,1,352.47,64.42Z"/><path class="cls-4" d="M379,139.29c0-28.37,20.15-50,46.34-50,24.51,0,38.44,17,34.58,42l-1,6.21-60.94.17v.51c0,14.1,6.89,22,19.64,22,9.4,0,17-4.54,20.48-12.43h19.48c-5.71,17.3-22.16,28.71-41,28.71C393.43,176.39,379,162.29,379,139.29Zm21.15-14.44h41.13c1.85-11.75-5-19.47-17.12-19.47C413.24,105.38,404,113.27,400.14,124.85Z"/><path class="cls-4" d="M469.65,174.38l19.64-124.9H509.1l-19.81,124.9Z"/><path class="cls-4" d="M512.12,139c0-29.21,18.63-49.69,43.48-49.69,12.59,0,23.5,6,27.53,15.11l8.56-54.89h19.65l-19.81,124.9h-18.3l.67-12.76c-6.55,9.57-15.95,14.77-28.2,14.77C526.22,176.39,512.12,161.12,512.12,139Zm66.65-11.41c0-12.93-7.39-21-19.81-21-15.11,0-27.2,13.6-27.2,31.23,0,12.76,7.72,21.15,19.81,21.15C566.68,158.93,578.77,145.17,578.77,127.54Z"/><path class="cls-4" d="M617.38,174.38l18.8-119.2h7.73l51.87,106.44L712.4,55.18h7.72l-18.8,119.2h-7.39l-52-106.94L625.1,174.38Z"/><path class="cls-4" d="M728.86,140.63c0-27.53,18.46-48.85,42.3-48.85,21.32,0,34.25,16.29,30.89,37.1l-.84,5.21H736.58c-.17,2.18-.34,4.36-.34,6.54,0,17.3,10.58,29.05,26,29.05,12.93,0,24.35-6.89,28.54-18.3h7.56c-5.37,15.78-19.48,25-36.1,25C742.79,176.39,728.86,161.45,728.86,140.63ZM737.75,128h56.91c2.86-17.79-7.22-29.54-23.5-29.54C755.21,98.5,742.12,110.75,737.75,128Z"/><path class="cls-4" d="M817.33,153.39c0,9.57,8.22,16.29,20,16.29,12.75,0,21.48-6.72,21.48-16.62,0-7.22-3.19-11.08-11.75-14.11l-12.76-4.53c-11.24-4-16.78-10.74-16.78-20.65,0-12.92,11.24-22,27.36-22,16.45,0,26,8.73,26,23.5h-7.55C862.82,103.7,857,98.5,844.52,98.5c-11.75,0-19.64,6-19.64,15.27,0,7,3.7,11.42,12.09,14.44l12.59,4.53c11.75,4.2,16.62,10.08,16.62,20.32,0,13.59-12.09,23.33-28.87,23.33-16.12,0-27.54-9.57-27.54-23Z"/><path class="cls-4" d="M884.65,174.38l11.75-74.21H880.45l1-6.37h15.95l4-25.52h7.22l-4,25.52h16l-1,6.37h-16l-11.75,74.21Z"/></svg>