<svg id="Layer_1" data-name="Layer 1" xmlns="http://www.w3.org/2000/svg" viewBox="0 0 452.58 517.86"><defs><style>.cls-1{fill:#1db7ac;}.cls-2{fill:#42e8db;}.cls-3{fill:#cdfce7;}.cls-4{fill:#fff;}</style></defs><path class="cls-1" d="M444.93,123.87,233.94,2.05a15.31,15.31,0,0,0-15.3,0L7.65,123.87A15.3,15.3,0,0,0,0,137.11V380.75A15.3,15.3,0,0,0,7.65,394l211,121.82a15.31,15.31,0,0,0,15.3,0L444.93,394a15.3,15.3,0,0,0,7.65-13.24V137.11A15.3,15.3,0,0,0,444.93,123.87Z"/><path class="cls-2" d="M444.93,123.87,233.94,2.05a15.31,15.31,0,0,0-15.3,0L7.65,123.87A15.3,15.3,0,0,0,0,137.11v18.21a15.3,15.3,0,0,1,7.65-13.25l211-121.81a15.27,15.27,0,0,1,15.3,0l211,121.81a15.3,15.3,0,0,1,7.65,13.25V137.11A15.3,15.3,0,0,0,444.93,123.87Z"/><path class="cls-2" d="M7.65,394l211,121.82a15.31,15.31,0,0,0,15.3,0L444.93,394a15.3,15.3,0,0,0,7.65-13.24V362.54a15.3,15.3,0,0,1-7.65,13.25l-211,121.81a15.27,15.27,0,0,1-15.3,0L7.65,375.79A15.3,15.3,0,0,1,0,362.54v18.21A15.3,15.3,0,0,0,7.65,394Z"/><path class="cls-3" d="M159,115.82V192a49,49,0,0,1-24.54,42.55l-67.3,38.93V245.18l43-24.74a49.3,49.3,0,0,0,24.54-42.56V130l1.11-.7Z"/><path class="cls-3" d="M319.4,390.34l-7.94,4.52-5.74,3.32-10.66,6L250.8,378.67a49.37,49.37,0,0,0-49.19,0l-44.36,25.75L133.1,390.34l68.51-39.64a48.89,48.89,0,0,1,49.19,0l68.5,39.54Z"/><path class="cls-4" d="M384.89,336.52v15.79l-10.66,6-123.53-71a49.18,49.18,0,0,0-49.09,0L78.08,358.65l-11-6.34V336.72l122.32-70.51A49.31,49.31,0,0,0,214,223.66V84.23l12.17-7,12.17,7V223.55A49.24,49.24,0,0,0,263,266.21Z"/><path class="cls-3" d="M384.89,244.88v28.27l-67.1-38.63A49,49,0,0,1,293.15,192V115.82l6.13,3.52,18.21,10.36v48.08a48.94,48.94,0,0,0,24.64,42.56Z"/></svg>