<svg xmlns="http://www.w3.org/2000/svg" xmlns:xlink="http://www.w3.org/1999/xlink" width="500" zoomAndPan="magnify" viewBox="0 0 375 374.999991" height="500" preserveAspectRatio="xMidYMid meet" version="1.0"><defs><clipPath id="5026299a00"><path d="M 187.5 0 C 83.945312 0 0 83.945312 0 187.5 C 0 291.054688 83.945312 375 187.5 375 C 291.054688 375 375 291.054688 375 187.5 C 375 83.945312 291.054688 0 187.5 0 Z M 187.5 0 " clip-rule="nonzero"/></clipPath><clipPath id="965dfe3fd3"><path d="M 65.175781 47.230469 L 218 47.230469 L 218 206 L 65.175781 206 Z M 65.175781 47.230469 " clip-rule="nonzero"/></clipPath><clipPath id="215c4dd9a4"><path d="M 156 99 L 309.675781 99 L 309.675781 327.730469 L 156 327.730469 Z M 156 99 " clip-rule="nonzero"/></clipPath></defs><g clip-path="url(#5026299a00)"><rect x="-37.5" width="450" fill="#2cc3b9" y="-37.499999" height="449.999989" fill-opacity="1"/></g><path fill="#ffffff" d="M 126.304688 292.664062 L 156.863281 310.199219 L 156.167969 274.734375 L 187.421875 187.476562 L 156.863281 169.945312 L 142.261719 213.386719 L 126.304688 152.417969 L 95.734375 134.882812 L 126.304688 257.605469 Z M 126.304688 292.664062 " fill-opacity="1" fill-rule="nonzero"/><path fill="#ffffff" d="M 217.992188 64.761719 L 248.550781 82.296875 L 279.109375 240.070312 L 248.550781 222.542969 Z M 217.992188 64.761719 " fill-opacity="1" fill-rule="nonzero"/><g clip-path="url(#965dfe3fd3)"><path fill="#ffffff" d="M 65.175781 117.355469 L 95.734375 134.882812 L 187.421875 82.296875 L 187.421875 187.476562 L 217.992188 205.015625 L 217.992188 64.761719 L 187.421875 47.230469 Z M 65.175781 117.355469 " fill-opacity="1" fill-rule="nonzero"/></g><g clip-path="url(#215c4dd9a4)"><path fill="#ffffff" d="M 279.109375 99.824219 L 309.675781 117.351562 L 309.675781 257.605469 L 187.421875 327.730469 L 156.863281 310.199219 L 279.109375 240.070312 Z M 279.109375 99.824219 " fill-opacity="1" fill-rule="nonzero"/></g></svg>