<svg xmlns="http://www.w3.org/2000/svg" xmlns:xlink="http://www.w3.org/1999/xlink" width="400" zoomAndPan="magnify" viewBox="0 0 300 299.999988" height="400" preserveAspectRatio="xMidYMid meet" version="1.0"><path fill="#ffffff" d="M 150 300 C 129.753906 300 110.109375 296.03125 91.609375 288.210938 C 73.746094 280.652344 57.710938 269.835938 43.933594 256.066406 C 30.164062 242.296875 19.347656 226.253906 11.789062 208.390625 C 3.96875 189.890625 0 170.246094 0 150 C 0 129.753906 3.96875 110.109375 11.789062 91.609375 C 19.347656 73.746094 30.164062 57.710938 43.933594 43.933594 C 57.710938 30.164062 73.746094 19.347656 91.609375 11.789062 C 110.109375 3.96875 129.753906 0 150 0 C 170.246094 0 189.890625 3.96875 208.390625 11.789062 C 226.253906 19.347656 242.289062 30.164062 256.066406 43.933594 C 269.835938 57.703125 280.652344 73.746094 288.210938 91.609375 C 296.03125 110.109375 300 129.753906 300 150 C 300 170.246094 296.03125 189.890625 288.210938 208.390625 C 280.652344 226.253906 269.835938 242.289062 256.066406 256.066406 C 242.296875 269.835938 226.253906 280.652344 208.390625 288.210938 C 189.890625 296.042969 170.246094 300 150 300 Z M 150 300 " fill-opacity="1" fill-rule="nonzero"/><path fill="#000000" d="M 292.050781 150 C 292.050781 152.324219 291.996094 154.648438 291.878906 156.96875 C 291.765625 159.292969 291.59375 161.609375 291.367188 163.921875 C 291.140625 166.238281 290.855469 168.542969 290.515625 170.84375 C 290.171875 173.144531 289.777344 175.433594 289.324219 177.714844 C 288.867188 179.992188 288.359375 182.261719 287.792969 184.515625 C 287.230469 186.769531 286.609375 189.011719 285.933594 191.234375 C 285.261719 193.460938 284.53125 195.667969 283.746094 197.855469 C 282.964844 200.042969 282.128906 202.214844 281.238281 204.359375 C 280.347656 206.507812 279.40625 208.632812 278.414062 210.734375 C 277.417969 212.835938 276.375 214.914062 275.277344 216.960938 C 274.183594 219.011719 273.035156 221.035156 271.84375 223.027344 C 270.648438 225.023438 269.402344 226.988281 268.113281 228.917969 C 266.820312 230.851562 265.480469 232.753906 264.097656 234.621094 C 262.710938 236.488281 261.28125 238.320312 259.808594 240.117188 C 258.332031 241.914062 256.816406 243.671875 255.253906 245.394531 C 253.691406 247.117188 252.089844 248.800781 250.445312 250.445312 C 248.800781 252.089844 247.117188 253.691406 245.394531 255.253906 C 243.671875 256.816406 241.914062 258.332031 240.117188 259.808594 C 238.320312 261.28125 236.488281 262.710938 234.621094 264.097656 C 232.753906 265.480469 230.851562 266.820312 228.917969 268.113281 C 226.988281 269.402344 225.023438 270.648438 223.027344 271.84375 C 221.035156 273.035156 219.011719 274.183594 216.960938 275.277344 C 214.914062 276.375 212.835938 277.417969 210.734375 278.414062 C 208.632812 279.40625 206.507812 280.347656 204.359375 281.238281 C 202.214844 282.128906 200.042969 282.964844 197.855469 283.746094 C 195.667969 284.53125 193.460938 285.261719 191.234375 285.933594 C 189.011719 286.609375 186.769531 287.230469 184.515625 287.792969 C 182.261719 288.359375 179.992188 288.867188 177.714844 289.324219 C 175.433594 289.777344 173.144531 290.171875 170.84375 290.515625 C 168.542969 290.855469 166.238281 291.140625 163.921875 291.367188 C 161.609375 291.59375 159.292969 291.765625 156.96875 291.878906 C 154.648438 291.996094 152.324219 292.050781 150 292.050781 C 147.675781 292.050781 145.351562 291.996094 143.03125 291.878906 C 140.707031 291.765625 138.390625 291.59375 136.078125 291.367188 C 133.761719 291.140625 131.457031 290.855469 129.15625 290.515625 C 126.855469 290.171875 124.566406 289.777344 122.285156 289.324219 C 120.007812 288.867188 117.738281 288.359375 115.484375 287.792969 C 113.230469 287.230469 110.988281 286.609375 108.765625 285.933594 C 106.539062 285.261719 104.332031 284.53125 102.144531 283.746094 C 99.957031 282.964844 97.785156 282.128906 95.640625 281.238281 C 93.492188 280.347656 91.367188 279.40625 89.265625 278.414062 C 87.164062 277.417969 85.085938 276.375 83.039062 275.277344 C 80.988281 274.183594 78.964844 273.035156 76.972656 271.84375 C 74.976562 270.648438 73.011719 269.402344 71.082031 268.113281 C 69.148438 266.820312 67.246094 265.480469 65.378906 264.097656 C 63.511719 262.710938 61.679688 261.28125 59.882812 259.808594 C 58.085938 258.332031 56.328125 256.816406 54.605469 255.253906 C 52.882812 253.691406 51.199219 252.089844 49.554688 250.445312 C 47.910156 248.800781 46.308594 247.117188 44.746094 245.394531 C 43.183594 243.671875 41.667969 241.914062 40.191406 240.117188 C 38.71875 238.320312 37.289062 236.488281 35.902344 234.621094 C 34.519531 232.753906 33.179688 230.851562 31.886719 228.917969 C 30.597656 226.988281 29.351562 225.023438 28.15625 223.027344 C 26.964844 221.035156 25.816406 219.011719 24.722656 216.960938 C 23.625 214.914062 22.582031 212.835938 21.585938 210.734375 C 20.59375 208.632812 19.652344 206.507812 18.761719 204.359375 C 17.871094 202.214844 17.035156 200.042969 16.253906 197.855469 C 15.46875 195.667969 14.738281 193.460938 14.066406 191.234375 C 13.390625 189.011719 12.769531 186.769531 12.207031 184.515625 C 11.640625 182.261719 11.132812 179.992188 10.675781 177.714844 C 10.222656 175.433594 9.828125 173.144531 9.484375 170.84375 C 9.144531 168.542969 8.859375 166.238281 8.632812 163.921875 C 8.40625 161.609375 8.234375 159.292969 8.121094 156.96875 C 8.003906 154.648438 7.949219 152.324219 7.949219 150 C 7.949219 147.675781 8.003906 145.351562 8.121094 143.03125 C 8.234375 140.707031 8.40625 138.390625 8.632812 136.078125 C 8.859375 133.761719 9.144531 131.457031 9.484375 129.15625 C 9.828125 126.855469 10.222656 124.566406 10.675781 122.285156 C 11.132812 120.007812 11.640625 117.738281 12.207031 115.484375 C 12.769531 113.230469 13.390625 110.988281 14.066406 108.765625 C 14.738281 106.539062 15.46875 104.332031 16.253906 102.144531 C 17.035156 99.957031 17.871094 97.785156 18.761719 95.640625 C 19.652344 93.492188 20.59375 91.367188 21.585938 89.265625 C 22.582031 87.164062 23.625 85.085938 24.722656 83.039062 C 25.816406 80.988281 26.964844 78.964844 28.15625 76.972656 C 29.351562 74.976562 30.597656 73.011719 31.886719 71.082031 C 33.179688 69.148438 34.519531 67.246094 35.902344 65.378906 C 37.289062 63.511719 38.71875 61.679688 40.191406 59.882812 C 41.667969 58.085938 43.183594 56.328125 44.746094 54.605469 C 46.308594 52.882812 47.910156 51.199219 49.554688 49.554688 C 51.199219 47.910156 52.882812 46.308594 54.605469 44.746094 C 56.328125 43.183594 58.085938 41.667969 59.882812 40.191406 C 61.679688 38.71875 63.511719 37.289062 65.378906 35.902344 C 67.246094 34.519531 69.148438 33.179688 71.082031 31.886719 C 73.011719 30.597656 74.976562 29.351562 76.972656 28.15625 C 78.964844 26.964844 80.988281 25.816406 83.039062 24.722656 C 85.085938 23.625 87.164062 22.582031 89.265625 21.585938 C 91.367188 20.59375 93.492188 19.652344 95.640625 18.761719 C 97.785156 17.871094 99.957031 17.035156 102.144531 16.253906 C 104.332031 15.46875 106.539062 14.738281 108.765625 14.066406 C 110.988281 13.390625 113.230469 12.769531 115.484375 12.207031 C 117.738281 11.640625 120.007812 11.132812 122.285156 10.675781 C 124.566406 10.222656 126.855469 9.828125 129.15625 9.484375 C 131.457031 9.144531 133.761719 8.859375 136.078125 8.632812 C 138.390625 8.40625 140.707031 8.234375 143.03125 8.121094 C 145.351562 8.003906 147.675781 7.949219 150 7.949219 C 152.324219 7.949219 154.648438 8.003906 156.96875 8.121094 C 159.292969 8.234375 161.609375 8.40625 163.921875 8.632812 C 166.238281 8.859375 168.542969 9.144531 170.84375 9.484375 C 173.144531 9.828125 175.433594 10.222656 177.714844 10.675781 C 179.992188 11.132812 182.261719 11.640625 184.515625 12.207031 C 186.769531 12.769531 189.011719 13.390625 191.234375 14.066406 C 193.460938 14.738281 195.667969 15.46875 197.855469 16.253906 C 200.042969 17.035156 202.214844 17.871094 204.359375 18.761719 C 206.507812 19.652344 208.632812 20.59375 210.734375 21.585938 C 212.835938 22.582031 214.914062 23.625 216.960938 24.722656 C 219.011719 25.816406 221.035156 26.964844 223.027344 28.15625 C 225.023438 29.351562 226.988281 30.597656 228.917969 31.886719 C 230.851562 33.179688 232.753906 34.519531 234.621094 35.902344 C 236.488281 37.289062 238.320312 38.71875 240.117188 40.191406 C 241.914062 41.667969 243.671875 43.183594 245.394531 44.746094 C 247.117188 46.308594 248.800781 47.910156 250.445312 49.554688 C 252.089844 51.199219 253.691406 52.882812 255.253906 54.605469 C 256.816406 56.328125 258.332031 58.085938 259.808594 59.882812 C 261.28125 61.679688 262.710938 63.511719 264.097656 65.378906 C 265.480469 67.246094 266.820312 69.148438 268.113281 71.082031 C 269.402344 73.011719 270.648438 74.976562 271.84375 76.972656 C 273.035156 78.964844 274.183594 80.988281 275.277344 83.039062 C 276.375 85.085938 277.417969 87.164062 278.414062 89.265625 C 279.40625 91.367188 280.347656 93.492188 281.238281 95.640625 C 282.128906 97.785156 282.964844 99.957031 283.746094 102.144531 C 284.53125 104.332031 285.261719 106.539062 285.933594 108.765625 C 286.609375 110.988281 287.230469 113.230469 287.792969 115.484375 C 288.359375 117.738281 288.867188 120.007812 289.324219 122.285156 C 289.777344 124.566406 290.171875 126.855469 290.515625 129.15625 C 290.855469 131.457031 291.140625 133.761719 291.367188 136.078125 C 291.59375 138.390625 291.765625 140.707031 291.878906 143.03125 C 291.996094 145.351562 292.050781 147.675781 292.050781 150 Z M 292.050781 150 " fill-opacity="1" fill-rule="nonzero"/><path fill="#ffffff" d="M 153.492188 93.496094 C 172.46875 95.1875 187.402344 110.90625 187.867188 130.207031 L 216.984375 142.304688 L 201.804688 117.5625 L 234.074219 85.292969 L 214.792969 66.007812 L 187.148438 93.664062 L 153.503906 38.800781 L 153.503906 93.496094 Z M 153.492188 93.496094 " fill-opacity="1" fill-rule="nonzero"/><path fill="#ffffff" d="M 187.371094 137.394531 C 184.578125 154.203125 170.691406 167.25 153.492188 168.796875 L 153.492188 188.777344 L 217.566406 149.945312 Z M 187.371094 137.394531 " fill-opacity="1" fill-rule="nonzero"/><path fill="#ffffff" d="M 112.800781 137.394531 L 82.605469 149.9375 L 146.675781 188.765625 L 146.675781 168.785156 C 129.480469 167.25 115.59375 154.203125 112.800781 137.394531 Z M 112.800781 137.394531 " fill-opacity="1" fill-rule="nonzero"/><path fill="#ffffff" d="M 216.84375 170.308594 L 153.492188 208.707031 L 153.492188 259.558594 L 179.558594 222.824219 L 206.769531 250.035156 L 226.054688 230.753906 L 195.574219 200.273438 Z M 216.84375 170.308594 " fill-opacity="1" fill-rule="nonzero"/><path fill="#ffffff" d="M 146.675781 208.707031 L 83.324219 170.308594 L 104.597656 200.273438 L 74.117188 230.753906 L 93.398438 250.035156 L 120.609375 222.835938 L 146.675781 259.550781 Z M 146.675781 208.707031 " fill-opacity="1" fill-rule="nonzero"/><path fill="#ffffff" d="M 83.1875 142.316406 L 112.300781 130.21875 C 112.765625 110.914062 127.699219 95.199219 146.675781 93.503906 L 146.675781 38.800781 L 113.03125 93.664062 L 85.378906 66.007812 L 66.09375 85.304688 L 98.363281 117.570312 Z M 83.1875 142.316406 " fill-opacity="1" fill-rule="nonzero"/><path fill="#ffffff" d="M 151.417969 126.800781 C 142.074219 123.933594 142.074219 122.34375 142.074219 121.066406 C 142.074219 119.285156 144.761719 116.832031 149.808594 116.832031 C 152.792969 116.832031 157.8125 117.570312 157.8125 122.566406 L 166.902344 122.566406 C 166.902344 113.699219 160.03125 107.738281 149.808594 107.738281 C 138.875 107.738281 132.980469 114.609375 132.980469 121.066406 C 132.980469 129.890625 140.730469 133.023438 148.6875 135.480469 C 158.03125 138.347656 158.085938 139.957031 158.085938 141.238281 C 158.085938 143.015625 155.398438 145.46875 150.347656 145.46875 C 147.355469 145.46875 142.347656 144.730469 142.347656 139.734375 L 133.257812 139.734375 C 133.257812 148.601562 140.125 154.5625 150.347656 154.5625 C 161.28125 154.5625 167.175781 147.691406 167.175781 141.238281 C 167.1875 132.398438 159.386719 129.246094 151.417969 126.800781 Z M 151.417969 126.800781 " fill-opacity="1" fill-rule="nonzero"/></svg>